<svg width="34" height="26" viewBox="0 0 34 26" fill="none" xmlns="http://www.w3.org/2000/svg">
<mask id="mask0_64_1686" style="mask-type:luminance" maskUnits="userSpaceOnUse" x="0" y="0" width="34" height="26">
<rect width="34" height="25.5" fill="white"/>
</mask>
<g mask="url(#mask0_64_1686)">
<path fill-rule="evenodd" clip-rule="evenodd" d="M0 0V25.5H34V0H0Z" fill="#2E42A5"/>
<mask id="mask1_64_1686" style="mask-type:luminance" maskUnits="userSpaceOnUse" x="0" y="0" width="34" height="26">
<path fill-rule="evenodd" clip-rule="evenodd" d="M0 0V25.5H34V0H0Z" fill="white"/>
</mask>
<g mask="url(#mask1_64_1686)">
<mask id="mask2_64_1686" style="mask-type:luminance" maskUnits="userSpaceOnUse" x="0" y="0" width="34" height="26">
<rect width="34" height="25.5" fill="white"/>
</mask>
<g mask="url(#mask2_64_1686)">
<path d="M-3.78613 23.6782L3.69566 26.8424L34.1695 3.44019L38.116 -1.26189L30.1152 -2.31945L17.6857 7.76523L7.68121 14.56L-3.78613 23.6782Z" fill="white"/>
<path d="M-2.76196 25.8952L1.04967 27.7314L36.6987 -1.69868H31.3467L-2.76196 25.8952Z" fill="#F50100"/>
<path d="M37.7864 23.6782L30.3046 26.8424L-0.169231 3.44019L-4.11571 -1.26189L3.88499 -2.31945L16.3145 7.76523L26.319 14.56L37.7864 23.6782Z" fill="white"/>
<path d="M37.5312 25.2692L33.7196 27.1055L18.5399 14.5049L14.0394 13.0971L-4.49529 -1.24582H0.856686L19.381 12.7566L24.3015 14.4448L37.5312 25.2692Z" fill="#F50100"/>
<mask id="path-9-inside-1_64_1686" fill="white">
<path fill-rule="evenodd" clip-rule="evenodd" d="M21.0129 -2.125H12.9852V8.5H-2.09631V17H12.9852V27.625H21.0129V17H36.1537V8.5H21.0129V-2.125Z"/>
</mask>
<path fill-rule="evenodd" clip-rule="evenodd" d="M21.0129 -2.125H12.9852V8.5H-2.09631V17H12.9852V27.625H21.0129V17H36.1537V8.5H21.0129V-2.125Z" fill="#F50100"/>
<path d="M12.9852 -2.125V-3.125H11.9852V-2.125H12.9852ZM21.0129 -2.125H22.0129V-3.125H21.0129V-2.125ZM12.9852 8.5V9.5H13.9852V8.5H12.9852ZM-2.09631 8.5V7.5H-3.09631V8.5H-2.09631ZM-2.09631 17H-3.09631V18H-2.09631V17ZM12.9852 17H13.9852V16H12.9852V17ZM12.9852 27.625H11.9852V28.625H12.9852V27.625ZM21.0129 27.625V28.625H22.0129V27.625H21.0129ZM21.0129 17V16H20.0129V17H21.0129ZM36.1537 17V18H37.1537V17H36.1537ZM36.1537 8.5H37.1537V7.5H36.1537V8.5ZM21.0129 8.5H20.0129V9.5H21.0129V8.5ZM12.9852 -1.125H21.0129V-3.125H12.9852V-1.125ZM13.9852 8.5V-2.125H11.9852V8.5H13.9852ZM-2.09631 9.5H12.9852V7.5H-2.09631V9.5ZM-1.09631 17V8.5H-3.09631V17H-1.09631ZM12.9852 16H-2.09631V18H12.9852V16ZM13.9852 27.625V17H11.9852V27.625H13.9852ZM21.0129 26.625H12.9852V28.625H21.0129V26.625ZM20.0129 17V27.625H22.0129V17H20.0129ZM36.1537 16H21.0129V18H36.1537V16ZM35.1537 8.5V17H37.1537V8.5H35.1537ZM21.0129 9.5H36.1537V7.5H21.0129V9.5ZM20.0129 -2.125V8.5H22.0129V-2.125H20.0129Z" fill="white" mask="url(#path-9-inside-1_64_1686)"/>
</g>
</g>
</g>
</svg>
