<svg width="159" height="159" viewBox="0 0 159 159" fill="none" xmlns="http://www.w3.org/2000/svg">
<circle cx="79.5" cy="79.0761" r="79.0761" fill="#FF9933"/>
<path d="M114.641 59.9214C114.641 62.0525 113.796 64.1102 112.259 65.58L76.5428 99.8255C74.9298 101.295 72.7791 102.177 70.5516 102.177C68.3241 102.177 66.1734 101.295 64.6372 99.8255L46.7405 82.7027C45.2043 81.233 44.3594 79.1753 44.3594 77.0441C44.3594 74.913 45.2811 72.9288 46.8173 71.3855C48.4303 69.9158 50.5042 69.1074 52.7317 69.0339C54.9592 69.0339 57.033 69.8423 58.6461 71.312L70.5516 82.7027L100.354 54.1893C101.967 52.7195 104.041 51.9111 106.268 51.9111C108.496 51.9846 110.57 52.793 112.183 54.3362C113.719 55.806 114.641 57.7902 114.641 59.9214Z" fill="white"/>
</svg>
