<svg width="22" height="19" viewBox="0 0 22 19" fill="none" xmlns="http://www.w3.org/2000/svg">
<path fill-rule="evenodd" clip-rule="evenodd" d="M16.8036 18.4488C18.0529 19.0076 18.5214 17.8368 18.5214 17.8368L21.827 0.859611C21.8009 -0.284619 20.2913 0.407241 20.2913 0.407241L1.78538 7.83144C1.78538 7.83144 0.900428 8.15076 0.978512 8.70957C1.0566 9.26838 1.75935 9.53448 1.75935 9.53448L6.41837 11.1311C6.41837 11.1311 7.82388 15.8411 8.11019 16.7458C8.37047 17.6239 8.60472 17.6505 8.60472 17.6505C8.86501 17.757 9.09926 17.5707 9.09926 17.5707L12.1185 14.7766L16.8036 18.4488ZM17.5075 4.04963C17.5075 4.04963 18.1579 3.66792 18.1319 4.04963C18.1319 4.04963 18.2359 4.10052 17.8977 4.45679C17.5855 4.76216 10.2226 11.2258 9.23391 12.091C9.15586 12.1419 9.10382 12.2182 9.10382 12.32L8.81763 14.7121C8.76559 14.9666 8.42737 14.992 8.34932 14.763L7.1265 10.8441C7.07446 10.6914 7.1265 10.5133 7.2826 10.4115L17.5075 4.04963Z" fill="#339999"/>
</svg>
