<svg width="24" height="24" viewBox="0 0 24 24" fill="none" xmlns="http://www.w3.org/2000/svg">
<path d="M19.6077 4.41909L19.6077 4.41912L19.6128 4.42423C21.5926 6.38794 22.6998 9.04468 22.6998 11.879C22.6998 17.7171 17.9191 22.5184 12.0303 22.5184C10.2761 22.5184 8.52925 22.1125 6.96155 21.2486L6.78818 21.1531L6.5964 21.2021L1.51106 22.5021L2.86871 17.5817L2.92217 17.3879L2.82666 17.2111C1.94424 15.5773 1.42188 13.7815 1.42188 11.9395H1.4219L1.42185 11.9345C1.36364 6.10301 6.1388 1.30005 12.0914 1.30005C14.8922 1.30005 17.6304 2.40009 19.6077 4.41909ZM3.00208 20.4686L2.78334 21.2931L3.6096 21.0811L6.9697 20.2192L7.15119 20.3092C8.63517 21.2003 10.3668 21.6417 12.0914 21.6417C13.8891 21.6417 15.6909 21.1336 17.1786 20.173C21.8113 17.3602 23.1558 11.4213 20.3296 6.83399C17.4946 2.23254 11.509 0.901322 6.88831 3.7022C2.2514 6.51289 0.901894 12.5168 3.73271 17.0477L3.73713 17.0548L3.74177 17.0617L3.8595 17.2368L3.00208 20.4686ZM14.8288 13.9381C14.8574 13.9062 14.8798 13.8813 14.8973 13.8619C14.9142 13.8544 14.9279 13.849 14.9415 13.8445C14.9461 13.843 14.9507 13.8416 14.9554 13.8403C14.9645 13.8441 14.9742 13.848 14.9841 13.8517C15.0003 13.8577 15.0203 13.8645 15.0437 13.8708C15.3479 14.0199 15.721 14.1904 16.0218 14.3254C16.1834 14.3979 16.3257 14.4609 16.4277 14.5057L16.5479 14.5584L16.5804 14.5726L16.5887 14.5762L16.589 14.5763L17.1456 14.8273V14.8277V14.8286V14.8295V14.8303V14.8312V14.8321V14.8329V14.8338V14.8347V14.8355V14.8364V14.8373V14.8381V14.839V14.8398V14.8407V14.8416V14.8424V14.8433V14.8441V14.845V14.8459V14.8467V14.8476V14.8484V14.8493V14.8501V14.851V14.8518V14.8527V14.8536V14.8544V14.8553V14.8561V14.857V14.8578V14.8587V14.8595V14.8604V14.8612V14.862V14.8629V14.8637V14.8646V14.8654V14.8663V14.8671V14.8679V14.8688V14.8696V14.8705V14.8713V14.8721V14.873V14.8738V14.8747V14.8755V14.8763V14.8772V14.878V14.8788V14.8797V14.8805V14.8813V14.8821V14.883V14.8838V14.8846V14.8854V14.8863V14.8871V14.8879V14.8887V14.8896V14.8904V14.8912V14.892V14.8928V14.8937V14.8945V14.8953V14.8961V14.8969V14.8977V14.8985V14.8994V14.9002V14.901V14.9018V14.9026V14.9034V14.9042V14.905V14.9058V14.9066V14.9074V14.9082V14.909V14.9098V14.9106V14.9114V14.9122V14.913V14.9138V14.9146V14.9154V14.9162V14.9165C17.0856 15.2119 17.0363 15.4277 16.955 15.589C16.9385 15.6216 16.8865 15.6812 16.7442 15.8224L17.0963 16.1773L16.7441 15.8224C16.7117 15.8546 16.6779 15.8805 16.6147 15.9275L16.6085 15.9321C16.5498 15.9758 16.4645 16.0392 16.3779 16.1251L16.257 16.245C16.253 16.2473 16.2433 16.2525 16.2155 16.2647C16.2092 16.2675 16.2021 16.2706 16.1942 16.274C16.1376 16.2984 16.0424 16.3395 15.9353 16.4067C15.7313 16.5039 15.4575 16.5855 15.2652 16.5855H15.2641H15.2631H15.262H15.2609H15.2598H15.2587H15.2577H15.2566H15.2555H15.2544H15.2533H15.2522H15.2511H15.25H15.249H15.2479H15.2468H15.2457H15.2446H15.2435H15.2424H15.2413H15.2402H15.2391H15.238H15.2368H15.2357H15.2346H15.2335H15.2324H15.2313H15.2302H15.2291H15.228H15.2268H15.2257H15.2246H15.2235H15.2223H15.2212H15.2201H15.219H15.2178H15.2167H15.2156H15.2145H15.2133H15.2122H15.2111H15.2099H15.2088H15.2076H15.2065H15.2054H15.2042H15.2031H15.2019H15.2008H15.1997H15.1985H15.1974H15.1962H15.1951H15.1939H15.1928H15.1916H15.1905H15.1893H15.1881H15.187H15.1858H15.1847H15.1835H15.1823H15.1812H15.18H15.1789H15.1777H15.1765H15.1754H15.1742H15.173H15.1719H15.1707H15.1695H15.1683H15.1672H15.166H15.1648H15.1636H15.1625H15.1613H15.1601H15.1589H15.1578H15.1566H15.1554H15.1542H15.153H15.1518H15.1507H15.1495H15.1483H15.1471H15.1459H15.1447H15.1435H15.1423H15.1411H15.1399H15.1387H15.1376H15.1364H15.1352H15.134H15.1328H15.1316H15.1304H15.1292H15.128H15.1268H15.1256H15.1244H15.1232H15.122H15.1207H15.1195H15.1183H15.1171H15.1159H15.1147H15.1135H15.1123H15.1111H15.1099H15.1087H15.1074H15.1062H15.105H15.1038H15.1026H15.1014H15.1002H15.0989H15.0977H15.0965H15.0953H15.0941H15.0928H15.0916H15.0904H15.0892H15.088H15.0867H15.0855H15.0843H15.0831H15.0818H15.0806H15.0794H15.0782H15.0769H15.0757H15.0745H15.0732H15.072H15.0708H15.0696H15.0683H15.0671H15.0659H15.0646H15.0634H15.0622H15.0609H15.0597H15.0585H15.0572H15.056H15.0548H15.0535H15.0523H15.051H15.0498H15.0486H15.0473H15.0461H15.0449H15.0436H15.0424H15.0411H15.0399H15.0387H15.0374H15.0362H15.0349H15.0337H15.0324H15.0312H15.03H15.0287H15.0275H15.0262H15.025H15.0237H15.0225H15.0212H15.02H15.0188H15.0175H15.0163H15.015H15.0138H15.0125H15.0113H15.01H15.0088H15.0075H15.0063H15.005H15.0038H15.0025H15.0013H15H14.9988H14.9975H14.9963H14.9951H14.9938H14.9926H14.9913H14.9901H14.9888H14.9875H14.9863H14.985H14.9838H14.9825H14.9813H14.98H14.9788H14.9775H14.9763H14.975H14.9738H14.9725H14.9713H14.97H14.9688H14.9675H14.9663H14.965H14.9638H14.9625H14.9613H14.96H14.9588H14.9575H14.9563H14.955H14.9538H14.9525H14.9513H14.95H14.9488H14.9475H14.9463H14.945H14.9438H14.9425H14.9412H14.94H14.9387H14.9375H14.9362H14.935H14.9337H14.9325H14.9312H14.93H14.9287H14.9275H14.9262H14.925H14.9237H14.9225H14.9212H14.92H14.9187H14.9175H14.9163H14.915H14.9138H14.9125H14.9113H14.91H14.9088H14.9075H14.9063H14.905H14.9038H14.9025H14.9013H14.9H14.8988H14.8976H14.8963H14.8951H14.8938H14.8926H14.8913H14.8901H14.8888H14.8876H14.8864H14.8851H14.8839H14.8826H14.8814H14.8802H14.8789H14.8777H14.8764H14.8752H14.874H14.8727H14.8715H14.8702H14.869H14.8678H14.8665H14.8653H14.8641H14.8628H14.8616H14.8604H14.8591H14.8579H14.8567H14.8554H14.8542H14.853H14.8517H14.8505H14.8493H14.848H14.8468H14.8456H14.8443H14.8431H14.8419H14.8407H14.8394H14.8382H14.837H14.8358H14.8345H14.8333H14.8321H14.8309H14.8296H14.8284H14.8272H14.826H14.8248H14.8235H14.8223H14.8211H14.8199H14.8187H14.8175H14.8162H14.815H14.8138H14.8126H14.8114H14.8102H14.809H14.8078H14.8065H14.8053H14.8041H14.8029H14.8017H14.8005H14.7993H14.7981H14.7969H14.7957H14.7945H14.7933H14.7921H14.7909H14.7897H14.7885H14.7873H14.7861H14.7849H14.7837H14.7825H14.7813H14.7801H14.7789H14.7777H14.7765H14.7753H14.7741H14.773H14.7718H14.7706H14.7694H14.7682H14.767H14.7658H14.7647H14.7635H14.7623H14.7611H14.7599H14.7588H14.7576H14.7564H14.7552H14.754H14.7529H14.7517H14.7505H14.7494H14.7482H14.747H14.7458H14.7447H14.7435H14.7423H14.7412H14.74H14.7389H14.7377H14.7365H14.7354H14.7342H14.7331H14.7319H14.7307H14.7296H14.7284H14.7273H14.7261H14.7252C14.6172 16.5577 14.5105 16.5426 14.4347 16.532C14.4296 16.5312 14.4246 16.5305 14.4198 16.5299C14.3018 16.5131 14.2423 16.5032 14.2015 16.4896L14.1854 16.4843L14.169 16.4801C12.6185 16.0814 11.2363 15.3453 10.0199 14.3219C9.93494 14.2096 9.84182 14.1209 9.76352 14.0503C9.72688 14.0173 9.69525 13.9896 9.66615 13.9641C9.61193 13.9166 9.56649 13.8768 9.51377 13.8245L9.26963 13.5824L9.2639 13.5767L9.258 13.5712C8.33774 12.7154 7.64568 11.7472 7.12337 10.6614L7.07212 10.5089L7.06546 10.489L7.05716 10.4698C6.89547 10.0956 6.79299 9.67893 6.79299 9.27572C6.79299 8.73896 6.98778 8.18865 7.34144 7.72862C7.41549 7.65164 7.47143 7.57762 7.51117 7.52503L7.51579 7.51891C7.54387 7.48177 7.56448 7.45491 7.58335 7.4325C7.64819 7.39258 7.70414 7.35084 7.74139 7.32305C7.74478 7.32052 7.74802 7.3181 7.7511 7.31581C7.82122 7.26365 7.84489 7.24797 7.85792 7.2415L7.93042 7.20554L7.9313 7.20468C7.95479 7.19946 7.97471 7.19446 7.98997 7.19063C7.99368 7.1897 7.99711 7.18883 8.00026 7.18805C8.04967 7.1758 8.06584 7.17301 8.06777 7.17248H8.06838H8.06946H8.07053H8.0716H8.07267H8.07375H8.07482H8.07589H8.07697H8.07804H8.07911H8.08018H8.08126H8.08233H8.0834H8.08447H8.08555H8.08662H8.08769H8.08876H8.08983H8.09091H8.09198H8.09305H8.09412H8.09519H8.09627H8.09734H8.09841H8.09948H8.10055H8.10162H8.10269H8.10376H8.10484H8.10591H8.10698H8.10805H8.10912H8.11019H8.11126H8.11233H8.1134H8.11447H8.11554H8.11661H8.11768H8.11875H8.11981H8.12088H8.12195H8.12302H8.12409H8.12516H8.12623H8.12729H8.12836H8.12943H8.1305H8.13157H8.13263H8.1337H8.13477H8.13583H8.1369H8.13797H8.13903H8.1401H8.14116H8.14223H8.14329H8.14436H8.14542H8.14649H8.14755H8.14862H8.14968H8.15075H8.15181H8.15287H8.15394H8.155H8.15606H8.15712H8.15819H8.15925H8.16031H8.16137H8.16243H8.16349H8.16455H8.16561H8.16667H8.16773H8.16879H8.16985H8.17091H8.17197H8.17303H8.17409H8.17515H8.1762H8.17726H8.17832H8.17938H8.18043H8.18149H8.18254H8.1836H8.18465H8.18571H8.18676H8.18782H8.18887H8.18993H8.19098H8.19203H8.19309H8.19414H8.19519H8.19624H8.19729H8.19834H8.1994H8.20045H8.2015H8.20255H8.20359H8.20464H8.20569H8.20674H8.20779H8.20884H8.20988H8.21093H8.21198H8.21302H8.21407H8.21511H8.21616H8.2172H8.21825H8.21929H8.22033H8.22138H8.22242H8.22346H8.2245H8.22554H8.22658H8.22762H8.22866H8.2297H8.23074H8.23178H8.23282H8.23386H8.23489H8.23593H8.23697H8.238H8.23904H8.24007H8.24111H8.24214H8.24318H8.24421H8.24524H8.24627H8.24731H8.24834H8.24937H8.2504H8.25143H8.25246H8.25349H8.25452H8.25554H8.25657H8.2576H8.25862H8.25965H8.26068H8.2617H8.26273H8.26375H8.26477H8.2658H8.26682H8.26784H8.26886H8.26988H8.2709H8.27192H8.27294H8.27396H8.27498H8.27599H8.27701H8.27803H8.27904H8.28006H8.28107H8.28209H8.2831H8.28411H8.28513H8.28614H8.28715H8.28816H8.28917H8.29018H8.29119H8.2922H8.29321H8.29421H8.29522H8.29623H8.29723H8.29824H8.29924H8.30024H8.30125H8.30225H8.30325H8.30425H8.30525H8.30625H8.30725H8.30825H8.30925H8.31024H8.31124H8.31224H8.31323H8.31423H8.31522H8.31621H8.31721H8.3182H8.31919H8.32018H8.32117H8.32216H8.32315H8.32414H8.32512H8.32611H8.3271H8.32808H8.32907H8.33005H8.33103H8.33202H8.333H8.33398H8.33496H8.33594H8.33692H8.33789H8.33887H8.33985H8.34083H8.3418H8.34277H8.34375H8.34472H8.34569H8.34667H8.34764H8.34861H8.34958H8.35054H8.35151H8.35248H8.35345H8.35441H8.35538H8.35634H8.3573H8.35827H8.35923H8.36019H8.36115H8.36211H8.36307H8.36402H8.36498H8.36594H8.36689H8.36785H8.3688H8.36975H8.37071H8.37166H8.37261H8.37356H8.37451H8.37545H8.3764H8.37735H8.37829H8.37924H8.38018H8.38113H8.38207H8.38301H8.38395H8.38489H8.38583H8.38677H8.3877H8.38864H8.38957H8.39051H8.39144H8.39238H8.39331H8.39424H8.39517H8.3961H8.39703H8.39795H8.39888H8.39981H8.40073H8.40165H8.40258H8.4035H8.40442H8.40534H8.40626H8.40718H8.4081H8.40901H8.40993H8.41084H8.41176H8.41267H8.41358H8.41449H8.4154H8.41631H8.41722H8.41813H8.41903H8.41994H8.42084H8.42175H8.42265H8.42355H8.42445H8.42535H8.42625H8.42715H8.42804H8.42894H8.42983H8.43073H8.43162H8.43251H8.4334H8.43429H8.43518H8.43607H8.43695H8.43784H8.43872H8.43961H8.44049H8.44137H8.44225H8.44313H8.44401H8.44489H8.44576H8.44664H8.44751H8.44839H8.44926H8.45013H8.451H8.45187H8.45274H8.4536H8.45447H8.45534H8.4562H8.45706H8.45792H8.45878H8.45964H8.4605H8.46136H8.46222H8.46307H8.46392H8.46478H8.46563H8.46648H8.46733H8.46818H8.46903H8.46987H8.47072H8.47156H8.4724H8.47325H8.47409H8.47493H8.47577H8.4766H8.47744H8.47827H8.47911H8.47994H8.48077H8.4816H8.48243H8.48326H8.48409H8.48491H8.48574H8.48656H8.48738H8.48821H8.48903H8.48984H8.49066H8.49148H8.49229H8.49311H8.49392H8.49473H8.49554H8.49635H8.49716H8.49797H8.49877H8.49958H8.50038H8.50118H8.50199H8.50278H8.50358H8.50438H8.50518H8.50597H8.50676H8.50756H8.50835H8.50914H8.50993H8.51071H8.5115H8.51228H8.51307H8.51385H8.51463H8.51541H8.51619H8.51697H8.51774H8.51852H8.51929H8.52006H8.52083H8.5216H8.52237H8.52314H8.52391H8.52467H8.52543H8.52619H8.52696H8.52771H8.52847H8.52923H8.52998H8.53074H8.53149H8.53224H8.53299H8.53374H8.53449H8.53523H8.53598H8.53672H8.53746H8.5382H8.53894H8.53968H8.54042H8.54115H8.54189H8.54262H8.54335H8.54408H8.54481H8.54554H8.54626H8.54699H8.54771H8.54843H8.54915H8.54987H8.55059H8.5513H8.64788C8.675 7.18337 8.68758 7.19049 8.69513 7.19549L8.69529 7.19559C8.69994 7.19867 8.71123 7.20613 8.73103 7.23213C8.82547 7.42414 9.03621 7.88476 9.2371 8.34733C9.34288 8.59091 9.4436 8.82968 9.52101 9.02437C9.5598 9.12192 9.5915 9.20534 9.61471 9.27114C9.62629 9.304 9.63495 9.33018 9.64102 9.35004C9.64647 9.3679 9.64826 9.37557 9.64829 9.37557L9.65428 9.40528L9.66206 9.42843C9.66229 9.43258 9.66272 9.44694 9.65713 9.47284C9.65003 9.5057 9.6362 9.542 9.61752 9.57551C9.53608 9.6677 9.47774 9.76453 9.44283 9.82249C9.44035 9.82661 9.43799 9.83053 9.43575 9.83423C9.38375 9.9202 9.36849 9.94038 9.35887 9.94992L9.71098 10.3049L9.35886 9.94992C9.25197 10.0559 9.13418 10.19 9.0483 10.2907C9.00416 10.3424 8.96611 10.3881 8.93902 10.4209L8.90696 10.46L8.90629 10.4609C8.78059 10.6008 8.7475 10.7628 8.73543 10.8466C8.72252 10.9362 8.72263 11.0288 8.72268 11.0822C8.72269 11.0856 8.72269 11.0889 8.72269 11.0919V11.2108L8.77621 11.317C8.7879 11.3402 8.79205 11.351 8.8006 11.3733C8.80518 11.3852 8.81104 11.4005 8.82001 11.4227C8.83928 11.4705 8.86958 11.5388 8.92465 11.6115L8.95932 11.6803L8.96423 11.69L8.96956 11.6995C9.30789 12.3036 9.77264 12.826 10.2134 13.2631C10.2944 13.3435 10.3895 13.4189 10.4595 13.4744L10.4683 13.4814C10.5502 13.5465 10.6031 13.5891 10.6406 13.6264L10.9927 13.2714L10.6406 13.6264C11.187 14.1683 11.8559 14.5613 12.5572 14.8775L12.5677 14.8822L12.5784 14.8864L12.811 14.9787C12.8651 15.0185 12.9201 15.0502 12.9678 15.0739C13.0289 15.1042 13.1611 15.1638 13.3121 15.1638H13.3731C13.6335 15.1638 13.9196 15.0422 14.0865 14.7753C14.4921 14.3156 14.7112 14.0693 14.8288 13.9381Z" fill="#339999" stroke="#339999"/>
</svg>
