<svg width="159" height="42" viewBox="0 0 159 42" fill="none" xmlns="http://www.w3.org/2000/svg">
<g clip-path="url(#clip0_38_711)">
<path d="M29.2451 42L41.7788 33.6V42H29.2451Z" fill="#FF9933"/>
<path d="M12.6642 12.7312V29.2687H29.1147V21H41.7789V29.2687L29.1147 37.8L22.9131 42H0V0H41.7789V12.7312H12.6642Z" fill="white"/>
<path d="M66.097 30.8836L65.8353 28.3309H65.7045C65.312 28.7891 64.7886 29.3127 64.1998 29.7055C62.8261 30.6218 61.3214 31.08 59.5551 31.08C56.9383 31.08 54.7141 30.1636 52.8824 28.2655C51.0506 26.3673 50.1348 23.9455 50.1348 21C50.1348 18.0545 51.0506 15.6327 52.8824 13.7345C54.7141 11.8364 56.9383 10.92 59.5551 10.92C61.8448 10.92 63.8073 11.5745 65.3774 12.8836C66.9474 14.1927 67.9287 15.7636 68.3867 17.5964H65.2466C64.7886 16.3527 64.0036 15.3709 63.0223 14.7164C61.9756 14.0618 60.8635 13.6691 59.5551 13.6691C57.658 13.6691 56.1533 14.3236 54.9103 15.6327C53.6674 16.9418 53.0786 18.7091 53.0786 20.9345C53.0786 23.16 53.6674 24.9273 54.9103 26.2364C56.1533 27.5455 57.658 28.2 59.5551 28.2C61.1906 28.2 62.6298 27.6764 63.8073 26.5636C64.9849 25.5164 65.5736 24.2727 65.5736 22.9636V23.0291H60.1439V20.6727H68.5175V30.8836H66.097Z" fill="white"/>
<path d="M80.4212 30.8227L80.1656 29.2789H80.0377C79.782 29.6005 79.4624 29.9222 79.0788 30.1795C78.1839 30.7584 77.1611 31.08 75.9466 31.08C74.4763 31.08 73.2618 30.694 72.3668 29.9222C71.4719 29.1503 71.0244 28.1211 71.0244 26.8346C71.0244 25.4195 71.4719 24.3259 72.4307 23.4897C73.3896 22.6535 74.7959 22.2676 76.6497 22.2676H80.0377V22.0103C80.0377 21.1097 79.782 20.4022 79.2706 19.8876C78.7592 19.373 78.0561 19.1157 77.1611 19.1157C76.2662 19.1157 75.6269 19.3086 75.1156 19.6946C74.6681 20.0805 74.3485 20.5308 74.2845 21.0454H71.5358C71.5997 19.8232 72.175 18.794 73.1339 18.0222C74.1567 17.1859 75.4991 16.8 77.0972 16.8C78.8871 16.8 80.2295 17.2503 81.2523 18.2151C82.2111 19.18 82.7225 20.4022 82.7225 22.0103V30.8227H80.4212ZM80.0377 25.0335V24.4546H76.7776C75.7548 24.4546 75.0516 24.6476 74.5402 25.0335C74.0288 25.4195 73.7732 25.9984 73.7732 26.6416C73.7732 27.2849 73.9649 27.7995 74.4124 28.1854C74.8599 28.5713 75.4352 28.7643 76.2662 28.7643C77.4807 28.7643 78.4396 28.4427 79.1428 27.7995C79.7181 27.0919 80.0377 26.1913 80.0377 25.0335Z" fill="white"/>
<path d="M86.9004 30.24V10.92H89.4071V30.24H86.9004Z" fill="white"/>
<path d="M96.0333 31.08L91.0781 16.8H94.0512L97.8832 27.9437H98.4779L102.31 16.8H105.283L100.262 31.08H96.0333Z" fill="white"/>
<path d="M115.515 30.8227L115.26 29.2789H115.132C114.876 29.6005 114.557 29.9222 114.173 30.1795C113.278 30.7584 112.255 31.08 111.041 31.08C109.571 31.08 108.356 30.694 107.461 29.9222C106.566 29.1503 106.119 28.1211 106.119 26.8346C106.119 25.4195 106.566 24.3259 107.525 23.4897C108.484 22.6535 109.89 22.2676 111.744 22.2676H115.132V22.0103C115.132 21.1097 114.876 20.4022 114.365 19.8876C113.853 19.373 113.15 19.1157 112.255 19.1157C111.36 19.1157 110.721 19.3086 110.21 19.6946C109.762 20.0805 109.443 20.5308 109.379 21.0454H106.63C106.694 19.8232 107.269 18.794 108.228 18.0222C109.251 17.1859 110.593 16.8 112.191 16.8C113.981 16.8 115.324 17.2503 116.347 18.2151C117.305 19.18 117.817 20.4022 117.817 22.0103V30.8227H115.515ZM115.068 25.0335V24.4546H111.808C110.785 24.4546 110.082 24.6476 109.571 25.0335C109.059 25.4195 108.803 25.9984 108.803 26.6416C108.803 27.2849 108.995 27.7995 109.443 28.1854C109.89 28.5713 110.465 28.7643 111.297 28.7643C112.511 28.7643 113.47 28.4427 114.173 27.7995C114.748 27.0919 115.068 26.1913 115.068 25.0335Z" fill="white"/>
<path d="M122.578 27.3535V19.0787H120.323V16.4487H122.578V12.6H125.43V16.4487H128.679V19.0787H125.43V26.9044C125.43 27.4817 125.695 27.7383 126.292 27.7383H128.679V30.24H125.695C124.7 30.24 123.904 29.9834 123.374 29.4703C122.843 28.9571 122.578 28.2515 122.578 27.3535Z" fill="white"/>
<path d="M139.573 26.8346H142.438C142.056 27.9281 141.292 28.893 140.274 29.7935C139.255 30.6941 137.918 31.08 136.327 31.08C134.353 31.08 132.698 30.4368 131.425 29.0859C130.151 27.7351 129.515 26.0627 129.515 23.94C129.515 21.8173 130.151 20.0805 131.425 18.794C132.698 17.4432 134.353 16.8 136.327 16.8C138.173 16.8 139.701 17.4432 140.974 18.7297C142.247 20.0162 142.884 21.6243 142.884 23.554C142.884 23.747 142.884 24.0686 142.82 24.5189L142.757 24.9049H132.252C132.379 26.0627 132.825 27.0276 133.589 27.7351C134.353 28.4427 135.244 28.7643 136.327 28.7643C137.091 28.7643 137.791 28.5713 138.364 28.1854C138.937 27.7995 139.382 27.3492 139.573 26.8346ZM132.252 22.8465H140.274C140.146 21.753 139.701 20.8524 139 20.1449C138.3 19.4373 137.409 19.1157 136.327 19.1157C135.181 19.1157 134.289 19.4373 133.589 20.1449C132.889 20.7881 132.443 21.6886 132.252 22.8465Z" fill="white"/>
<path d="M155.969 25.9984H158.76C158.63 26.5773 158.435 27.1562 158.111 27.6708C157.851 28.2497 157.462 28.7643 156.943 29.2789C156.424 29.7935 155.839 30.2438 154.996 30.5654C154.217 30.887 153.308 31.08 152.335 31.08C150.323 31.08 148.636 30.4368 147.338 29.0859C146.04 27.7351 145.391 26.0627 145.391 23.94C145.391 21.8173 146.04 20.0805 147.338 18.794C148.636 17.4432 150.323 16.8 152.335 16.8C154.217 16.8 155.645 17.3146 156.683 18.3438C157.721 19.373 158.435 20.5308 158.695 21.753H155.904C155.32 20.0805 154.087 19.2443 152.27 19.2443C151.037 19.2443 150.063 19.6946 149.285 20.5308C148.506 21.367 148.116 22.5249 148.116 23.94C148.116 25.3551 148.506 26.513 149.285 27.3492C150.063 28.1854 151.037 28.6357 152.27 28.6357C153.243 28.6357 154.087 28.3784 154.671 27.8638C155.385 27.2849 155.775 26.6416 155.969 25.9984Z" fill="white"/>
</g>
<defs>
<clipPath id="clip0_38_711">
<rect width="158.76" height="42" fill="white"/>
</clipPath>
</defs>
</svg>
