<svg width="719" height="190" viewBox="0 0 719 190" fill="none" xmlns="http://www.w3.org/2000/svg">
<g clip-path="url(#clip0_7_18)">
<path d="M131.586 190L188.822 151.406V190H131.586Z" fill="#FF9933"/>
<path d="M57.2368 57.5938V132.406H131.586V95H188.822V132.406L131.586 171L103.557 190H0V0H188.822V57.5938H57.2368Z" fill="#339999"/>
<path d="M298.87 139.531L297.69 127.953H297.1C295.33 130.031 292.97 132.406 290.314 134.187C284.119 138.344 277.333 140.422 269.367 140.422C257.565 140.422 247.534 136.266 239.273 127.656C231.012 119.047 226.882 108.062 226.882 94.7031C226.882 81.3437 231.012 70.3594 239.273 61.75C247.534 53.1406 257.565 48.9844 269.367 48.9844C279.693 48.9844 288.544 51.9531 295.625 57.8906C302.706 63.8281 307.131 70.9531 309.197 79.2656H295.035C292.97 73.625 289.429 69.1719 285.004 66.2031C280.283 63.2344 275.268 61.4531 269.367 61.4531C260.811 61.4531 254.025 64.4219 248.419 70.3594C242.814 76.2969 240.158 84.3125 240.158 94.4062C240.158 104.5 242.814 112.516 248.419 118.453C254.025 124.391 260.811 127.359 269.367 127.359C276.743 127.359 283.234 124.984 288.544 119.938C293.855 115.188 296.51 109.547 296.51 103.609V103.906H272.022V93.2187H309.787V139.531H298.87Z" fill="#292929"/>
<path d="M366.433 139.531L365.253 132.406H364.663C363.483 133.891 362.008 135.375 360.238 136.563C356.107 139.234 351.387 140.719 345.781 140.719C338.995 140.719 333.389 138.938 329.259 135.375C325.128 131.812 323.063 127.062 323.063 121.125C323.063 114.594 325.128 109.547 329.554 105.687C333.98 101.828 340.47 100.047 349.026 100.047H364.663V98.8594C364.663 94.7031 363.483 91.4375 361.123 89.0625C358.762 86.6875 355.517 85.5 351.387 85.5C347.256 85.5 344.306 86.3906 341.945 88.1719C339.88 89.9531 338.405 92.0312 338.11 94.4062H325.424C325.719 88.7656 328.374 84.0156 332.799 80.4531C337.52 76.5937 343.716 74.8125 351.092 74.8125C359.353 74.8125 365.548 76.8906 370.269 81.3437C374.694 85.7969 377.055 91.4375 377.055 98.8594V139.531H366.433ZM364.663 112.812V110.141H349.616C344.896 110.141 341.65 111.031 339.29 112.812C336.93 114.594 335.75 117.266 335.75 120.234C335.75 123.203 336.635 125.578 338.7 127.359C340.765 129.141 343.421 130.031 347.256 130.031C352.862 130.031 357.287 128.547 360.533 125.578C363.188 122.312 364.663 118.156 364.663 112.812Z" fill="#292929"/>
<path d="M392.691 139.531V50.4688H405.378V139.531H392.691Z" fill="#292929"/>
<path d="M436.062 139.531L413.934 76H427.211L444.323 125.578H446.978L464.09 76H477.366L454.944 139.531H436.062Z" fill="#292929"/>
<path d="M523.982 139.531L522.802 132.406H522.212C521.032 133.891 519.556 135.375 517.786 136.563C513.656 139.234 508.935 140.719 503.33 140.719C496.544 140.719 490.938 138.938 486.808 135.375C482.677 131.812 480.612 127.062 480.612 121.125C480.612 114.594 482.677 109.547 487.103 105.687C491.528 101.828 498.019 100.047 506.575 100.047H522.212V98.8594C522.212 94.7031 521.032 91.4375 518.671 89.0625C516.311 86.6875 513.066 85.5 508.935 85.5C504.805 85.5 501.854 86.3906 499.494 88.1719C497.429 89.9531 495.954 92.0312 495.659 94.4062H482.972C483.267 88.7656 485.922 84.0156 490.348 80.4531C495.069 76.5937 501.264 74.8125 508.64 74.8125C516.901 74.8125 523.097 76.8906 527.817 81.3437C532.243 85.7969 534.603 91.4375 534.603 98.8594V139.531H523.982ZM521.917 112.812V110.141H506.87C502.149 110.141 498.904 111.031 496.544 112.812C494.183 114.594 493.003 117.266 493.003 120.234C493.003 123.203 493.888 125.578 495.954 127.359C498.019 129.141 500.674 130.031 504.51 130.031C510.115 130.031 514.541 128.547 517.786 125.578C520.442 122.312 521.917 118.156 521.917 112.812Z" fill="#292929"/>
<path d="M553.19 126.172V87.875H543.159V75.7031H553.19V57.8906H565.877V75.7031H580.334V87.875H565.877V124.094C565.877 126.766 567.057 127.953 569.712 127.953H580.334V139.531H567.057C562.631 139.531 559.091 138.344 556.731 135.969C554.37 133.594 553.19 130.328 553.19 126.172Z" fill="#292929"/>
<path d="M634.03 121.125H647.306C645.536 126.172 641.996 130.625 637.275 134.781C632.555 138.938 626.359 140.719 618.983 140.719C609.837 140.719 602.166 137.75 596.265 131.516C590.365 125.281 587.414 117.562 587.414 107.766C587.414 97.9687 590.365 89.9531 596.265 84.0156C602.166 77.7812 609.837 74.8125 618.983 74.8125C627.539 74.8125 634.62 77.7813 640.521 83.7188C646.421 89.6563 649.372 97.0781 649.372 105.984C649.372 106.875 649.372 108.359 649.077 110.438L648.782 112.219H600.101C600.691 117.562 602.756 122.016 606.297 125.281C609.837 128.547 613.968 130.031 618.983 130.031C622.524 130.031 625.769 129.141 628.424 127.359C631.08 125.578 633.145 123.5 634.03 121.125ZM600.101 102.719H637.275C636.685 97.6719 634.62 93.5156 631.375 90.25C628.129 86.9844 623.999 85.5 618.983 85.5C613.673 85.5 609.542 86.9844 606.297 90.25C603.051 93.2187 600.986 97.375 600.101 102.719Z" fill="#292929"/>
<path d="M706.314 117.266H719C718.41 119.938 717.525 122.609 716.05 124.984C714.87 127.656 713.099 130.031 710.739 132.406C708.379 134.781 705.723 136.859 701.888 138.344C698.348 139.828 694.217 140.719 689.792 140.719C680.646 140.719 672.975 137.75 667.074 131.516C661.173 125.281 658.223 117.562 658.223 107.766C658.223 97.9687 661.173 89.9531 667.074 84.0156C672.975 77.7812 680.646 74.8125 689.792 74.8125C698.348 74.8125 704.838 77.1875 709.559 81.9375C714.28 86.6875 717.525 92.0313 718.705 97.6719H706.019C703.363 89.9531 697.758 86.0937 689.497 86.0937C683.891 86.0937 679.465 88.1719 675.925 92.0312C672.385 95.8906 670.614 101.234 670.614 107.766C670.614 114.297 672.385 119.641 675.925 123.5C679.465 127.359 683.891 129.437 689.497 129.437C693.922 129.437 697.758 128.25 700.413 125.875C703.658 123.203 705.428 120.234 706.314 117.266Z" fill="#292929"/>
</g>
<defs>
<clipPath id="clip0_7_18">
<rect width="719" height="190" fill="white"/>
</clipPath>
</defs>
</svg>
