<?xml version="1.0" standalone="no"?>
<!DOCTYPE svg PUBLIC "-//W3C//DTD SVG 20010904//EN"
 "http://www.w3.org/TR/2001/REC-SVG-20010904/DTD/svg10.dtd">
<svg version="1.0" xmlns="http://www.w3.org/2000/svg"
 width="760.000000pt" height="760.000000pt" viewBox="0 0 760.000000 760.000000"
 preserveAspectRatio="xMidYMid meet">
<metadata>
Created by potrace 1.14, written by Peter Selinger 2001-2017
</metadata>
<g transform="translate(0.000000,760.000000) scale(0.100000,-0.100000)"
fill="#000000" stroke="none">
<path d="M20 3800 l0 -3800 2071 0 2071 0 107 72 c58 40 133 90 166 112 33 23
66 47 73 53 7 7 17 13 22 13 5 0 15 6 22 13 7 6 117 81 243 166 127 85 232
157 235 160 3 3 17 12 33 20 15 8 27 18 27 23 0 4 4 8 10 8 5 0 41 22 80 50
39 27 74 50 79 50 5 0 11 3 13 8 2 4 55 42 118 84 393 263 495 333 498 340 2
4 7 8 11 8 7 0 262 167 286 188 10 8 144 98 174 117 65 41 237 160 239 167 2
4 9 8 15 8 7 0 36 18 65 40 29 22 54 40 57 40 3 0 64 41 136 90 72 50 141 95
152 102 12 6 24 14 27 17 3 4 32 24 65 46 33 21 62 42 65 45 3 4 19 14 37 23
17 9 37 22 45 29 7 8 37 29 66 47 30 19 60 40 68 48 7 8 15 13 16 11 2 -1 38
22 81 52 52 36 77 60 78 74 1 27 1 1458 0 1469 -1 4 -22 8 -48 7 -27 0 -55 0
-63 0 -8 1 -44 1 -80 1 -36 -1 -72 -1 -80 0 -8 0 -44 0 -80 0 -36 -1 -72 -1
-80 0 -8 0 -44 0 -80 0 -36 -1 -72 -1 -80 0 -8 0 -44 0 -80 0 -36 -1 -72 -1
-80 0 -8 0 -44 0 -80 0 -36 -1 -72 -1 -80 0 -8 0 -44 0 -80 0 -36 -1 -72 0
-80 0 -8 0 -46 0 -85 0 -38 -1 -81 -1 -95 0 -14 0 -41 -1 -60 -3 -19 -2 -47
-1 -61 3 -16 4 -32 2 -38 -4 -8 -8 -11 -8 -11 0 0 8 -9 9 -29 3 -15 -4 -34 -4
-41 0 -7 5 -23 5 -34 1 -23 -8 -95 -5 -104 4 -3 2 -11 0 -19 -6 -9 -8 -13 -8
-13 -1 0 7 -10 8 -29 2 -15 -4 -34 -4 -41 0 -7 5 -23 5 -34 1 -23 -8 -95 -5
-104 4 -3 2 -11 0 -19 -6 -9 -8 -13 -8 -13 -1 0 7 -10 8 -29 2 -15 -4 -34 -4
-41 0 -7 5 -23 5 -34 1 -23 -8 -95 -5 -104 4 -3 2 -11 0 -19 -6 -9 -8 -13 -8
-13 -1 0 7 -10 8 -29 2 -15 -4 -34 -4 -42 0 -7 5 -17 6 -22 3 -6 -3 -19 -6
-31 -7 l-21 -1 -1 -735 c-1 -404 -2 -740 -3 -745 -1 -7 -496 -10 -1486 -10
l-1485 0 0 1495 0 1495 2623 0 c1442 -1 2627 0 2632 2 7 2 9 391 8 1146 -1
628 -2 1145 -2 1150 -1 4 -1700 7 -3776 7 l-3775 0 0 -3800z"/>
<path d="M7545 1527 c-11 -6 -29 -19 -39 -29 -11 -10 -23 -18 -27 -18 -4 0
-14 -6 -21 -13 -7 -7 -28 -22 -45 -32 -18 -11 -149 -98 -290 -194 -142 -96
-375 -253 -518 -350 -143 -96 -264 -179 -270 -183 -5 -5 -46 -32 -90 -61 -44
-28 -81 -55 -83 -59 -2 -5 -8 -8 -14 -8 -6 0 -41 -22 -79 -50 -38 -27 -73 -50
-79 -50 -5 0 -10 -3 -10 -8 0 -4 -16 -16 -35 -26 -19 -11 -35 -23 -35 -28 0
-4 -5 -8 -10 -8 -6 0 -52 -28 -101 -62 -50 -35 -98 -68 -107 -73 -29 -18 -107
-70 -112 -75 -3 -3 -45 -32 -95 -65 -49 -33 -114 -77 -144 -98 l-54 -37 1143
2 1143 3 0 763 c0 419 -2 764 -4 766 -2 3 -13 0 -24 -7z"/>
</g>
</svg>
